<svg viewBox="0 0 183 33" fill="none" xmlns="http://www.w3.org/2000/svg">
  <path d="m18.36 17.856 6.48 13.88H18.4l-4.36-9.36-7.16 9.36H.56l11.28-14.04L5.4 3.816h6.44l4.36 9.36 7.08-9.36h6.36l-11.28 14.04Zm13.982-7.6c.613-2.667 1.92-4.72 3.92-6.16 2.026-1.467 4.466-2.2 7.32-2.2 2.56 0 4.52.573 5.88 1.72 1.36 1.146 2.04 2.653 2.04 4.52 0 .453-.04.946-.12 1.48-.267 1.68-.947 3.106-2.04 4.28-1.067 1.146-2.24 1.92-3.52 2.32v.16c1.2.4 2.133 1.066 2.8 2 .666.906 1 2.066 1 3.48 0 .64-.053 1.24-.16 1.8a9.856 9.856 0 0 1-1.88 4.28c-.96 1.253-2.214 2.24-3.76 2.96-1.547.693-3.32 1.04-5.32 1.04-2.72 0-4.88-.614-6.48-1.84-1.6-1.254-2.4-3.107-2.4-5.56 0-.507.04-1.04.12-1.6h5.44c-.027.16-.04.4-.04.72 0 1.093.346 1.973 1.04 2.64.693.64 1.693.96 3 .96 1.546 0 2.773-.494 3.68-1.48.933-.987 1.4-2.2 1.4-3.64 0-1.227-.453-2.107-1.36-2.64-.907-.534-2.307-.8-4.2-.8h-1.16l.84-4.6h1.16c3.76 0 5.866-1.267 6.32-3.8a8.75 8.75 0 0 0 .08-.84c0-.907-.294-1.6-.88-2.08-.56-.48-1.387-.72-2.48-.72-1.28 0-2.32.346-3.12 1.04a5.254 5.254 0 0 0-1.64 2.56h-5.48Zm32.568 7.48c.48-2.747 1.52-5.2 3.12-7.36 1.627-2.187 3.614-3.88 5.96-5.08a16.236 16.236 0 0 1 7.56-1.84c3.12 0 5.72.8 7.8 2.4 2.08 1.6 3.334 3.813 3.76 6.64h-6.44c-.426-1.28-1.16-2.24-2.2-2.88-1.04-.667-2.32-1-3.84-1a9.616 9.616 0 0 0-4.56 1.12c-1.386.746-2.56 1.813-3.52 3.2-.933 1.386-1.56 2.986-1.88 4.8-.133.853-.2 1.56-.2 2.12 0 2.16.614 3.866 1.84 5.12 1.254 1.253 2.947 1.88 5.08 1.88 1.52 0 2.92-.334 4.2-1 1.28-.667 2.36-1.64 3.24-2.92h6.44c-1.44 2.853-3.48 5.08-6.12 6.68-2.613 1.573-5.48 2.36-8.6 2.36-2.346 0-4.426-.467-6.24-1.4-1.786-.96-3.173-2.307-4.16-4.04-.986-1.734-1.48-3.72-1.48-5.96 0-.934.08-1.88.24-2.84Zm46.023-8.48c2.187 0 3.92.626 5.2 1.88 1.307 1.253 1.96 3.013 1.96 5.28 0 .853-.066 1.626-.2 2.32l-2.32 13h-5.56l2.16-12.24c.08-.48.12-.947.12-1.4 0-1.334-.36-2.347-1.08-3.04-.693-.694-1.693-1.04-3-1.04-1.493 0-2.76.453-3.8 1.36-1.04.88-1.733 2.146-2.08 3.8l-2.24 12.56h-5.64l5.24-29.6h5.64l-1.8 10.16c.907-.934 2-1.667 3.28-2.2 1.307-.56 2.68-.84 4.12-.84Zm10.526 11.32c.4-2.24 1.186-4.227 2.36-5.96 1.2-1.734 2.653-3.067 4.36-4 1.706-.934 3.506-1.4 5.4-1.4 1.653 0 3.04.333 4.16 1 1.146.666 1.986 1.506 2.52 2.52l.56-3.16h5.64l-3.92 22.16h-5.64l.6-3.24c-.88 1.04-2.027 1.906-3.44 2.6-1.387.666-2.907 1-4.56 1-1.627 0-3.067-.36-4.32-1.08-1.254-.747-2.227-1.787-2.92-3.12-.694-1.36-1.04-2.934-1.04-4.72 0-.827.08-1.694.24-2.6Zm17.4.08c.106-.694.16-1.2.16-1.52 0-1.574-.467-2.8-1.4-3.68-.907-.88-2.054-1.32-3.44-1.32-1.04 0-2.054.253-3.04.76-.96.506-1.8 1.253-2.52 2.24-.72.96-1.2 2.106-1.44 3.44a9.25 9.25 0 0 0-.12 1.44c0 1.6.453 2.866 1.36 3.8.906.906 2.053 1.36 3.44 1.36 1.04 0 2.053-.254 3.04-.76.986-.534 1.826-1.294 2.52-2.28.72-.987 1.2-2.147 1.44-3.48Zm16.389-13.72c-.88 0-1.587-.254-2.12-.76-.533-.507-.8-1.147-.8-1.92 0-1.067.4-1.974 1.2-2.72.827-.774 1.787-1.16 2.88-1.16.853 0 1.547.253 2.08.76.533.506.8 1.146.8 1.92 0 1.066-.4 1.986-1.2 2.76a4.024 4.024 0 0 1-2.84 1.12Zm2.32 2.64-3.92 22.16h-5.64l3.92-22.16h5.64Zm17.813-.32c2.293 0 4.093.626 5.4 1.88 1.333 1.226 2 2.986 2 5.28 0 .853-.067 1.626-.2 2.32l-2.32 13h-5.56l2.16-12.24c.08-.48.12-.947.12-1.4 0-1.334-.36-2.347-1.08-3.04-.693-.694-1.693-1.04-3-1.04-1.493 0-2.773.453-3.84 1.36-1.04.88-1.733 2.16-2.08 3.84l-2.2 12.52h-5.64l3.92-22.16h5.64l-.48 2.72a9.831 9.831 0 0 1 3.24-2.2 9.506 9.506 0 0 1 3.92-.84Z" fill="url(#a)"/>
  <defs>
    <linearGradient id="a" x1="1" y1="17.736" x2="70.361" y2="-81.329" gradientUnits="userSpaceOnUse">
      <stop stop-color="#A9D6FF"/>
      <stop offset="1" stop-color="#0060B6"/>
    </linearGradient>
  </defs>
</svg>
