<svg viewBox="0 0 63 63" fill="none" xmlns="http://www.w3.org/2000/svg">
  <mask id="a" style="mask-type:luminance" maskUnits="userSpaceOnUse" x="0" y="4" width="45" height="55">
    <path d="M0 4h44.045v54.804H0V4Z" fill="#fff"/>
  </mask>
  <g mask="url(#a)">
    <path d="M21.41 52.002a2.62 2.62 0 0 1-2.297-1.319L8.519 32.501a2.598 2.598 0 0 1 0-2.612l10.229-17.561-4.462-6.156L.47 29.89c-.47.802-.47 1.81 0 2.612L15.082 57.59a2.69 2.69 0 0 0 2.296 1.319H42.83l-4.748-6.919H21.409v.013Z" fill="url(#b)"/>
  </g>
  <path d="M28.113 43.04h-8.828l6.704-9.455 4.502 5.643-2.378 3.813ZM62.62 30.13 48.453 5.305C47.983 4.5 47.15 4 46.226 4H17.881c-.228 0-.443.026-.67.09l4.768 6.756h20.339c.923 0 1.77.486 2.226 1.292l10.27 18.004a2.616 2.616 0 0 1 0 2.585l-7.841 13.73L36.36 31.026l1.923-2.712 6.046-8.523h-8.335l-1.771 2.739-1.935 2.956-.064.115-.025.038-1.037-1.535-2.859-4.274-.012-.039h-8.703l8.007 11.53 4.402 5.515 10.118 15.163h-.037l4.566 6.808h.012a2.56 2.56 0 0 0 1.797-1.267l2.795-4.875 11.37-19.95a2.616 2.616 0 0 0 0-2.584Z" fill="url(#c)"/>
  <defs>
    <linearGradient id="b" x1="21.474" y1="6.172" x2="21.474" y2="58.908" gradientUnits="userSpaceOnUse">
      <stop stop-color="#5AAAF7"/>
      <stop offset="1" stop-color="#002A50"/>
    </linearGradient>
    <linearGradient id="c" x1="40.085" y1="4" x2="40.085" y2="58.806" gradientUnits="userSpaceOnUse">
      <stop stop-color="#5AAAF7"/>
      <stop offset="1" stop-color="#002A50"/>
    </linearGradient>
  </defs>
</svg>
