<svg version="1.0" xmlns="http://www.w3.org/2000/svg" viewBox="0 0 264 264">
  <path d="M73.8 17.2c-.7.3 2.8 6.2 8.6 14.5l9.7 13.8h43.7c24 .1 44.7.4 45.9.9 2.3.7 4.6 3.5 8 9.6 1.1 1.9 6.6 11.6 12.3 21.5 5.6 9.9 11.6 20.5 13.3 23.5 1.7 3 5.9 10.4 9.4 16.4 7.5 13 7.8 15.5 3 23.6-1.8 3-3.6 6.2-4 7-.4.8-2.2 4-4 7.1-1.7 3-7.5 13-12.7 22.2-5.2 9.2-9.8 16.7-10.1 16.7-.3 0-5.9-7.9-12.5-17.6-6.5-9.7-12.3-18.1-12.9-18.8-.5-.6-2.6-3.6-4.7-6.6-2-3-6-8.8-8.8-12.9l-5.2-7.5 1.8-3c1-1.7 3.6-5.6 5.8-8.8 2.3-3.1 4.7-6.4 5.4-7.5.7-1 5.3-7.4 10.2-14.3 4.9-6.9 9-12.8 9-13.3 0-.4-7.7-.7-17-.7h-17l-7.8 12c-4.2 6.6-7.9 12-8.2 12-.3 0-4.1-5.4-8.4-12l-8-12H82.1l17.2 24.7c9.5 13.7 21.6 30.2 26.8 36.8 5.3 6.6 23.1 32.3 39.6 57.2l29.9 45.1 3-1.4c2.4-1.1 5.4-5.6 13.5-19.7 5.7-10 10.9-19.1 11.5-20.2.6-1.1 9.2-16.2 19.1-33.5 22.5-39.4 21.6-37.6 21-41.5-.3-1.7-5.8-12.3-12.2-23.6C245 95.7 238.4 84 236.8 81c-1.7-3-3.4-6-3.8-6.5-.4-.6-1.8-3-3.2-5.5-12.9-23.5-28.4-49.4-30.3-50.6-2-1.3-10.8-1.5-63.5-1.7-33.7-.1-61.7.1-62.2.5z"/>
  <path d="M55.7 33.3C53.3 37.2 45.3 50.8 38 63.5c-7.3 12.6-14.5 25-16 27.5-2.5 4-9.9 16.9-16.1 27.5C1 127 .2 129.1.6 131.9c.4 2.5 16.2 30.1 54.1 94.8 5.2 9 10.5 17.1 11.8 18.1 2.2 1.7 5.6 1.8 56.9 1.8 30-.1 54.6-.5 54.7-.9 0-.4-4.1-6.9-9.2-14.3l-9.2-13.4h-36.5c-31.4 0-36.8-.2-39-1.6-2.3-1.3-11.4-15.8-25.3-40.4-1.5-2.5-3.8-6.5-5.3-8.8-1.4-2.3-2.6-4.3-2.6-4.6 0-.2-3.6-6.4-7.9-13.8-4.4-7.4-8.3-14.6-8.6-16-.7-2.8 1.2-7.7 6.4-16.3 1.7-2.8 3.4-5.6 3.8-6.4.3-.8 6.5-11.4 13.6-23.5C65.4 74.4 72.4 62.5 73.8 60c1.3-2.5 2.8-4.9 3.3-5.5 1.8-1.8.8-3.8-8-16l-8.9-12.4-4.5 7.2z"/>
  <path d="M107.1 143.8c-8.3 10.7-25.2 35.1-24.9 35.9.3.9 34.5 1.2 35.7.3.4-.3 2.8-3.9 5.4-8 3.9-6.3 4.4-7.7 3.3-9-.7-.8-4.9-6.1-9.4-11.7l-8-10.3-2.1 2.8z"/>
</svg>
